<svg width="76" height="76" viewBox="0 0 76 76" fill="none" xmlns="http://www.w3.org/2000/svg">
<circle cx="38" cy="38" r="38" fill="#E4E4E4"/>
<path d="M43.5 18C43.5 20.8995 41.0376 23.25 38 23.25C34.9624 23.25 32.5 20.8995 32.5 18H25.625C23.3468 18 21.5 19.7629 21.5 21.9375V56.0625C21.5 58.2371 23.3468 60 25.625 60H50.375C52.6532 60 54.5 58.2371 54.5 56.0625V21.9375C54.5 19.7629 52.6532 18 50.375 18H43.5ZM28.375 31.125H47.625C48.3844 31.125 49 31.7126 49 32.4375C49 33.1624 48.3844 33.75 47.625 33.75H28.375C27.6156 33.75 27 33.1624 27 32.4375C27 31.7126 27.6156 31.125 28.375 31.125ZM28.375 36.375H39.375C40.1344 36.375 40.75 36.9626 40.75 37.6875C40.75 38.4124 40.1344 39 39.375 39H28.375C27.6156 39 27 38.4124 27 37.6875C27 36.9626 27.6156 36.375 28.375 36.375Z" fill="black"/>
</svg>
