<svg width="76" height="76" viewBox="0 0 76 76" fill="none" xmlns="http://www.w3.org/2000/svg">
<circle cx="38" cy="38" r="38" fill="#E4E4E4"/>
<path fill-rule="evenodd" clip-rule="evenodd" d="M18.3438 35.875C17.9362 35.875 17.5506 36.0342 17.2956 36.3077C17.0405 36.5813 16.9436 36.9397 17.032 37.2821L21.4717 54.4729C22.1548 57.118 24.8814 59 28.0304 59H43.5946C46.7437 59 49.4702 57.118 50.1533 54.4729L50.5055 53.1094C50.9708 53.1813 51.4494 53.2187 51.9375 53.2187C56.3903 53.2187 60 50.1127 60 46.2812C60 43.0635 57.4547 40.358 54.0013 39.5733L54.593 37.2821C54.6814 36.9397 54.5845 36.5813 54.3294 36.3077C54.0744 36.0342 53.6888 35.875 53.2813 35.875H18.3438ZM51.9375 50.9062C51.6484 50.9062 51.3651 50.8867 51.0892 50.8491L53.4175 41.8336C55.666 42.3865 57.3125 44.1687 57.3125 46.2812C57.3125 48.8356 54.906 50.9062 51.9375 50.9062ZM24.0952 53.9712L20.0189 38.1875H51.6061L47.5298 53.9712C47.12 55.5583 45.484 56.6875 43.5946 56.6875H28.0304C26.141 56.6875 24.5051 55.5583 24.0952 53.9712Z" fill="black"/>
<path d="M28.8252 23.8497L28.8163 23.8601L28.7806 23.9021C28.7487 23.94 28.7018 23.9965 28.6449 24.0673C28.5301 24.2099 28.3791 24.4049 28.2304 24.6183C28.0791 24.8352 27.9443 25.0508 27.8513 25.2376C27.7831 25.3745 27.7607 25.4503 27.7534 25.475C27.7517 25.4808 27.7503 25.484 27.7503 25.484C27.7549 25.5878 27.8066 25.7664 27.9973 26.0581C28.198 26.365 28.4768 26.6879 28.825 27.0874L28.8496 27.1157C29.1684 27.4813 29.5494 27.9183 29.845 28.3706C30.1485 28.8348 30.4375 29.424 30.4375 30.0937C30.4375 30.5277 30.2635 30.9454 30.1189 31.2357C29.96 31.5548 29.7588 31.8691 29.5741 32.1339C29.387 32.4023 29.202 32.6409 29.0648 32.8114C28.9957 32.8972 28.9377 32.9672 28.8961 33.0166L28.8464 33.0751L28.832 33.0919L28.8275 33.0971L28.8254 33.0994C28.3802 33.6103 27.5375 33.7143 26.9438 33.3312C26.3503 32.9482 26.2298 32.2239 26.6745 31.713L26.6837 31.7023L26.7194 31.6603C26.7513 31.6224 26.7982 31.5659 26.8551 31.4951C26.9699 31.3525 27.1209 31.1575 27.2696 30.9441C27.4209 30.7272 27.5557 30.5115 27.6487 30.3247C27.7169 30.1879 27.7393 30.1121 27.7466 30.0874C27.7483 30.0816 27.7497 30.0783 27.7497 30.0783C27.7451 29.9746 27.6934 29.796 27.5026 29.5043C27.302 29.1974 27.0232 28.8745 26.675 28.4749L26.6504 28.4467C26.3316 28.081 25.9506 27.6441 25.655 27.1918C25.3515 26.7276 25.0625 26.1384 25.0625 25.4687C25.0625 25.0347 25.2365 24.617 25.3811 24.3267C25.54 24.0076 25.7412 23.6933 25.9259 23.4285C26.113 23.1601 26.298 22.9215 26.4352 22.751C26.5043 22.6652 26.5623 22.5952 26.6039 22.5458L26.6725 22.4653L26.6746 22.463C27.1198 21.9521 27.9625 21.848 28.5562 22.2312C29.1497 22.6142 29.2698 23.3389 28.8252 23.8497Z" fill="black"/>
<path d="M36.8877 23.8497L36.8788 23.8601L36.8431 23.9021C36.8112 23.94 36.7643 23.9965 36.7074 24.0673C36.5926 24.2099 36.4416 24.4049 36.2929 24.6183C36.1416 24.8352 36.0068 25.0508 35.9138 25.2376C35.8456 25.3745 35.8232 25.4503 35.8159 25.475C35.8142 25.4808 35.8128 25.484 35.8128 25.484C35.8174 25.5878 35.8691 25.7664 36.0599 26.0581C36.2605 26.365 36.5393 26.6879 36.8875 27.0874L36.9121 27.1157C37.2309 27.4813 37.6119 27.9183 37.9075 28.3706C38.211 28.8348 38.5 29.424 38.5 30.0937C38.5 30.5277 38.326 30.9454 38.1814 31.2357C38.0225 31.5548 37.8213 31.8691 37.6366 32.1339C37.4495 32.4023 37.2645 32.6409 37.1273 32.8114C37.0582 32.8972 37.0002 32.9672 36.9586 33.0166L36.9089 33.0751L36.8945 33.0919L36.89 33.0971L36.8879 33.0994C36.4427 33.6103 35.6 33.7143 35.0063 33.3312C34.4128 32.9482 34.2923 32.2239 34.737 31.713L34.7462 31.7023L34.7819 31.6603C34.8138 31.6224 34.8607 31.5659 34.9176 31.4951C35.0324 31.3525 35.1834 31.1575 35.3321 30.9441C35.4834 30.7272 35.6182 30.5115 35.7112 30.3247C35.7794 30.1879 35.8018 30.1121 35.8091 30.0874C35.8108 30.0816 35.8122 30.0783 35.8122 30.0783C35.8076 29.9746 35.7559 29.796 35.5651 29.5043C35.3645 29.1974 35.0857 28.8745 34.7375 28.4749L34.7129 28.4467C34.3941 28.081 34.0131 27.6441 33.7175 27.1918C33.414 26.7276 33.125 26.1384 33.125 25.4687C33.125 25.0347 33.299 24.617 33.4436 24.3267C33.6025 24.0076 33.8037 23.6933 33.9884 23.4285C34.1755 23.1601 34.3605 22.9215 34.4977 22.751C34.5668 22.6652 34.6248 22.5952 34.6664 22.5458L34.735 22.4653L34.7371 22.463C35.1823 21.9521 36.025 21.848 36.6187 22.2312C37.2122 22.6142 37.3323 23.3389 36.8877 23.8497Z" fill="black"/>
<path d="M44.9502 23.8497L44.9413 23.8601L44.9056 23.9021C44.8737 23.94 44.8268 23.9965 44.7699 24.0673C44.6551 24.2099 44.5041 24.4049 44.3554 24.6183C44.2041 24.8352 44.0693 25.0508 43.9763 25.2376C43.9081 25.3745 43.8857 25.4503 43.8784 25.475C43.8767 25.4808 43.8753 25.484 43.8753 25.484C43.8799 25.5878 43.9316 25.7664 44.1224 26.0581C44.323 26.365 44.6018 26.6879 44.95 27.0874L44.9746 27.1157C45.2934 27.4813 45.6744 27.9183 45.97 28.3706C46.2735 28.8348 46.5625 29.424 46.5625 30.0937C46.5625 30.5277 46.3885 30.9454 46.2439 31.2357C46.085 31.5548 45.8838 31.8691 45.6991 32.1339C45.512 32.4023 45.327 32.6409 45.1898 32.8114C45.1207 32.8972 45.0627 32.9672 45.0211 33.0166L44.9714 33.0751L44.957 33.0919L44.9525 33.0971L44.9504 33.0994C44.5052 33.6103 43.6625 33.7143 43.0688 33.3312C42.4753 32.9482 42.3548 32.2239 42.7995 31.713L42.8087 31.7023L42.8444 31.6603C42.8763 31.6224 42.9232 31.5659 42.9801 31.4951C43.0949 31.3525 43.2459 31.1575 43.3946 30.9441C43.5459 30.7272 43.6807 30.5115 43.7737 30.3247C43.8419 30.1879 43.8643 30.1121 43.8716 30.0874C43.8733 30.0816 43.8747 30.0783 43.8747 30.0783C43.8701 29.9746 43.8184 29.796 43.6276 29.5043C43.427 29.1974 43.1482 28.8745 42.8 28.4749L42.7754 28.4467C42.4566 28.081 42.0756 27.6441 41.78 27.1918C41.4765 26.7276 41.1875 26.1384 41.1875 25.4687C41.1875 25.0347 41.3615 24.617 41.5061 24.3267C41.665 24.0076 41.8662 23.6933 42.0509 23.4285C42.238 23.1601 42.423 22.9215 42.5602 22.751C42.6293 22.6652 42.6873 22.5952 42.7289 22.5458L42.7975 22.4653L42.7996 22.463C43.2448 21.9521 44.0875 21.848 44.6812 22.2312C45.2747 22.6142 45.3948 23.3389 44.9502 23.8497Z" fill="black"/>
</svg>
